<?xml version="1.0" encoding="UTF-8"?>
<svg version="1.1" xmlns="http://www.w3.org/2000/svg" width="1024" height="1024">
<path d="M0 0 C16.83 0 33.66 0 51 0 C53.59704968 5.19409935 56.01086855 10.24123376 58.14453125 15.609375 C58.43138794 16.32223663 58.71824463 17.03509827 59.01379395 17.76956177 C59.6295854 19.30023454 60.24398047 20.8314697 60.85708618 22.36322021 C62.50165669 26.47162599 64.1562503 30.57597831 65.8125 34.6796875 C66.32445671 35.94844223 66.32445671 35.94844223 66.84675598 37.24282837 C69.27443811 43.24398789 71.74768972 49.22491339 74.25 55.1953125 C74.59286545 56.01378662 74.9357309 56.83226074 75.28898621 57.67553711 C76.93719045 61.60618197 78.59117597 65.53430326 80.2512207 69.45996094 C80.85116887 70.88733001 81.45102715 72.31473687 82.05078125 73.7421875 C82.32096069 74.37609406 82.59114014 75.01000061 82.86950684 75.66311646 C84.14431733 78.70567569 85.22466681 81.705079 86.05932617 84.89111328 C86.36974854 85.9170459 86.6801709 86.94297852 87 88 C87.66 88.33 88.32 88.66 89 89 C89.67578125 90.64453125 89.67578125 90.64453125 90.3125 92.8125 C91.88594081 97.8572432 93.91343839 102.64962318 96.01171875 107.49609375 C97 110 97 110 97 112 C97.66 112.33 98.32 112.66 99 113 C99.70530701 114.70578003 99.70530701 114.70578003 100.36499023 116.92138672 C102.01679609 122.16113945 104.05076298 127.18785574 106.16015625 132.2578125 C106.96161241 134.20181308 107.76304397 136.1458238 108.56445312 138.08984375 C109.81636512 141.11617926 111.06954048 144.14198713 112.32348633 147.16748047 C113.54302426 150.11296856 114.7580065 153.06030599 115.97265625 156.0078125 C116.53364769 157.3549382 116.53364769 157.3549382 117.10597229 158.72927856 C117.45651169 159.58061371 117.80705109 160.43194885 118.16821289 161.30908203 C118.62763023 162.41752975 118.62763023 162.41752975 119.09632874 163.54837036 C120.23621525 166.64084399 121.0945559 169.83094566 122 173 C156.32 173 190.64 173 226 173 C232.82324933 160.4298541 232.82324933 160.4298541 231 152 C230.01 152 229.02 152 228 152 C227.9071875 150.3603125 227.9071875 150.3603125 227.8125 148.6875 C227.36386357 145.06158319 226.31946871 142.24374149 224.73828125 138.95703125 C221.52409348 132.07688536 218.87305646 125.01337424 216.21875 117.90234375 C215.84492187 116.92394531 215.47109375 115.94554687 215.0859375 114.9375 C214.5916626 113.62072266 214.5916626 113.62072266 214.08740234 112.27734375 C212.99570254 109.99099984 211.89786279 108.65090382 210 107 C210.66 107 211.32 107 212 107 C211.74009277 106.39567139 211.48018555 105.79134277 211.21240234 105.16870117 C204.48370127 89.48444022 198.02719436 73.71146068 191.77294922 57.83276367 C188.48096571 49.41211123 188.48096571 49.41211123 184.65234375 41.2265625 C183.31496801 38.61504391 182.65624282 36.77544516 182 34 C181.13013815 31.7190919 180.23032258 29.44953517 179.3125 27.1875 C179.05065918 26.53749023 178.78881836 25.88748047 178.51904297 25.21777344 C177.1153682 21.73492109 175.69626188 18.25861886 174.26953125 14.78515625 C173.99391357 14.10880127 173.7182959 13.43244629 173.43432617 12.7355957 C172.90384112 11.43410703 172.36899757 10.13438446 171.8293457 8.83666992 C170.69335071 6.04298348 170 4.05046104 170 1 C171.98 1.33 173.96 1.66 176 2 C176.33 1.34 176.66 0.68 177 0 C177 0.66 177 1.32 177 2 C177.87398438 1.95456055 177.87398438 1.95456055 178.765625 1.90820312 C190.85562838 1.29039635 202.8931169 0.84389406 215 1 C219.24317988 10.95045236 223.13350353 21.02391063 227 31.125 C227.66442156 32.85706455 228.32897457 34.58907868 228.99365234 36.32104492 C230.99827038 41.54640627 232.99945786 46.77307709 235 52 C235.58495205 53.52783543 236.16991261 55.05566761 236.75488281 56.58349609 C237.84901516 59.44144216 238.94255717 62.29961309 240.03564453 65.15795898 C241.08983507 67.91454823 242.14564652 70.67050851 243.20263672 73.42602539 C245.72466487 80.00685571 248.22772105 86.59374417 250.6847229 93.19917297 C251.87180984 96.38743416 253.06721825 99.57254492 254.2633667 102.75741577 C254.83401084 104.28403134 255.40051806 105.81220019 255.96270752 107.34194946 C256.73839285 109.45198472 257.52775697 111.55641113 258.3203125 113.66015625 C258.76648926 114.86293213 259.21266602 116.06570801 259.67236328 117.30493164 C260.1104834 118.1943042 260.54860352 119.08367676 261 120 C261.99 120.33 262.98 120.66 264 121 C264.38631592 119.94127686 264.77263184 118.88255371 265.1706543 117.79174805 C277.10477936 85.09373105 289.13033289 52.43440437 301.50805664 19.90136719 C301.79381561 19.14904312 302.07957458 18.39671906 302.37399292 17.62159729 C302.90520372 16.22320318 303.43737434 14.82517311 303.97073364 13.42759705 C305.40636203 9.64604298 306.74805566 5.8462368 308 2 C308.66 2 309.32 2 310 2 C310.33 1.34 310.66 0.68 311 0 C311.99 0.33 312.98 0.66 314 1 C316.28618652 1.09570167 318.57509347 1.1307392 320.86328125 1.1328125 C321.53288376 1.13376923 322.20248627 1.13472595 322.89237976 1.13571167 C324.3087066 1.13639158 325.72503658 1.13455045 327.14135742 1.13037109 C329.29418065 1.12504532 331.44679284 1.13030936 333.59960938 1.13671875 C334.97916712 1.13605744 336.35872474 1.13477519 337.73828125 1.1328125 C338.98649658 1.13168457 340.23471191 1.13055664 341.52075195 1.12939453 C344.97467137 1.09229573 344.97467137 1.09229573 348.20385742 0.36669922 C351.27849898 -0.03652366 352.4475749 0.33110667 355 2 C354.74420166 2.63164062 354.48840332 3.26328125 354.22485352 3.9140625 C349.69981357 15.10721098 345.20528034 26.30722537 341 37.625 C336.53646828 49.63424737 331.96054963 61.59940904 327.375 73.5625 C326.98701233 74.57489746 326.59902466 75.58729492 326.19927979 76.63037109 C321.73280125 88.28330054 317.26288026 99.93492921 312.77670288 111.58029175 C311.18481572 115.71318846 309.59832227 119.84794363 308.02587891 123.98828125 C305.51520759 130.58469022 302.98799576 137.13912342 300.1171875 143.58984375 C295.42922929 153.62408708 295.42922929 153.62408708 296.25878906 164.30053711 C297.30947091 166.97534607 298.62466833 169.479861 300 172 C300 172.66 300 173.32 300 174 C301.13939529 173.92894547 302.27879059 173.85789093 303.45271301 173.78468323 C315.31773894 173.08108769 327.1282842 172.86588492 339.01171875 172.90234375 C340.84544333 172.90421584 342.67916841 172.90563599 344.51289368 172.90663147 C349.26870174 172.9103945 354.02447777 172.92016925 358.78027344 172.93133545 C363.66145393 172.94168562 368.54263975 172.94615781 373.42382812 172.95117188 C382.94923259 172.96179913 392.4746136 172.97879775 402 173 C401.67 172.34 401.34 171.68 401 171 C401.99 171 402.98 171 404 171 C405.91999976 165.3625539 407.6844119 159.71469542 409.25390625 153.96875 C410 152 410 152 412 151 C412.71934099 148.94320165 413.42679202 146.88163822 414.08105469 144.80322266 C416.26123825 138.15262019 418.96007654 131.67241012 421.50390625 125.15429688 C421.93832031 124.03474609 422.37273438 122.91519531 422.8203125 121.76171875 C423.21492676 120.75069092 423.60954102 119.73966309 424.01611328 118.69799805 C425.01210336 116.11802473 425.01210336 116.11802473 425.52905273 113.84960938 C426.20256082 111.20445788 427.56178469 108.94328216 428.80029297 106.52587891 C431.09058854 101.7038606 432.90733413 96.68150649 434.80056763 91.69351196 C436.11735249 88.22668698 437.44871434 84.76548358 438.78125 81.3046875 C439.05151505 80.6025563 439.32178009 79.90042511 439.60023499 79.17701721 C442.17029365 72.52098209 444.85117978 65.91218564 447.5625 59.3125 C455.6354685 39.64365416 463.29407702 19.81523053 471 0 C488.16 0 505.32 0 523 0 C519.62535951 10.12392148 519.62535951 10.12392148 517.81445312 14.6262207 C517.40932999 15.63732407 517.00420685 16.64842743 516.58680725 17.69017029 C516.15597336 18.75792191 515.72513947 19.82567352 515.28125 20.92578125 C514.82685043 22.05826797 514.37245087 23.1907547 513.90428162 24.3575592 C512.68882909 27.38605516 511.47121672 30.41367176 510.25278854 33.44097137 C508.23600536 38.45495239 506.2261813 43.47173148 504.21513176 48.48801422 C503.47609813 50.33125925 502.73677563 52.17438845 501.99745178 54.01751709 C497.35780458 65.58904332 492.78932982 77.18693886 488.25292969 88.79931641 C486.13032805 94.22162886 483.99135186 99.63748891 481.85458374 105.05422974 C475.75944316 120.5080119 469.69066251 135.97212811 463.625 151.4375 C463.19857208 152.52451202 462.77214417 153.61152405 462.33279419 154.73147583 C461.08874762 157.90289653 459.84512493 161.07448319 458.6015625 164.24609375 C458.00990547 165.75397209 458.00990547 165.75397209 457.40629578 167.29231262 C455.55132026 172.0237456 453.70434688 176.75795089 451.87792969 181.50048828 C451.55231049 182.34450699 451.22669128 183.1885257 450.89120483 184.05812073 C450.28731747 185.62552769 449.68564382 187.19379003 449.08657837 188.76304626 C447.11075299 193.88924701 447.11075299 193.88924701 446 195 C444.40486107 195.12272849 442.80445068 195.17781043 441.20483398 195.20532227 C440.18385117 195.22526749 439.16286835 195.24521271 438.11094666 195.26576233 C437.0005452 195.28247482 435.89014374 195.29918732 434.74609375 195.31640625 C433.61551041 195.33718735 432.48492706 195.35796844 431.32008362 195.37937927 C427.69262015 195.44499797 424.06508167 195.50381677 420.4375 195.5625 C417.98501814 195.60567351 415.532544 195.6492874 413.08007812 195.69335938 C407.05346573 195.80069184 401.02677799 195.9024349 395 196 C394.67 195.01 394.34 194.02 394 193 C394.99 191.02 395.98 189.04 397 187 C366.97 187 336.94 187 306 187 C306.99 188.98 307.98 190.96 309 193 C309 193.66 309 194.32 309 195 C278.66666667 195 248.33333333 195 218 195 C218 192 218 192 221 187 C190.64 187.33 160.28 187.66 129 188 C129.66 189.32 130.32 190.64 131 192 C131 192.99 131 193.98 131 195 C114.5 195 98 195 81 195 C80.01 192.69 79.02 190.38 78 188 C36.42 187.67 -5.16 187.34 -48 187 C-48 187.66 -48 188.32 -48 189 C-49.65 188.34 -51.3 187.68 -53 187 C-53.144375 187.763125 -53.28875 188.52625 -53.4375 189.3125 C-54 192 -54 192 -55 195 C-69.52 195 -84.04 195 -99 195 C-98.28737991 191.43689954 -97.60518929 188.68292066 -96.31689453 185.37866211 C-95.79902374 184.0416198 -95.79902374 184.0416198 -95.27069092 182.67756653 C-94.7074411 181.24195625 -94.7074411 181.24195625 -94.1328125 179.77734375 C-93.7424884 178.7730986 -93.35216431 177.76885345 -92.95001221 176.73417664 C-91.67898614 173.46705233 -90.4021077 170.20225126 -89.125 166.9375 C-88.24399596 164.67704037 -87.36330048 162.41646045 -86.48291016 160.15576172 C-84.35720633 154.70056212 -82.22669037 149.2472612 -80.09350586 143.79498291 C-79.16128608 141.41224455 -78.22979549 139.02922397 -77.29882812 136.64599609 C-74.21568834 128.75747721 -71.1132435 120.87668136 -68 113 C-67.54107361 111.83881653 -67.54107361 111.83881653 -67.07287598 110.6541748 C-63.81198179 102.40397342 -60.55051907 94.15399719 -57.28588867 85.90527344 C-54.04707531 77.72016953 -50.81151605 69.53394032 -47.60546875 61.3359375 C-47.35084869 60.68534363 -47.09622864 60.03474976 -46.83389282 59.36444092 C-45.68602435 56.43085802 -44.54028512 53.49647931 -43.3984375 50.56054688 C-41.08214807 44.6340148 -38.64893618 38.78595411 -36 33 C-34.08517702 35.87223447 -32.96102405 38.40440055 -31.71484375 41.609375 C-31.27052002 42.74624756 -30.82619629 43.88312012 -30.3684082 45.05444336 C-29.8962085 46.27397705 -29.42400879 47.49351074 -28.9375 48.75 C-28.20058287 50.64639501 -27.46292092 52.54249918 -26.72520447 54.43858337 C-26.22429742 55.72637484 -25.72386332 57.01435037 -25.22389221 58.30250549 C-23.60132611 62.47734046 -21.94752964 66.63844443 -20.2734375 70.79296875 C-19.64900757 72.35289551 -19.64900757 72.35289551 -19.01196289 73.94433594 C-18.22850447 75.899394 -17.43888975 77.85199936 -16.64233398 79.80175781 C-16.11748413 81.11998535 -16.11748413 81.11998535 -15.58203125 82.46484375 C-15.27499268 83.224021 -14.9679541 83.98319824 -14.65161133 84.76538086 C-13.29999708 89.40057203 -13.96435425 92.50270666 -16.0859375 96.75390625 C-18.30938953 101.42971806 -20.29676574 106.13959944 -22.1640625 110.96484375 C-22.44088867 111.67926636 -22.71771484 112.39368896 -23.00292969 113.12976074 C-23.87928045 115.39811685 -24.75215922 117.66779127 -25.625 119.9375 C-26.54948976 122.33124389 -27.47511531 124.72454636 -28.40087891 127.11779785 C-29.02394753 128.72858479 -29.64666925 130.33950596 -30.26904297 131.95056152 C-32.25864185 137.09753309 -34.2651337 142.23752789 -36.2890625 147.37109375 C-36.54334015 148.01620407 -36.7976178 148.66131439 -37.05960083 149.32597351 C-38.24543926 152.33266778 -39.43353032 155.33845809 -40.62353516 158.34350586 C-41.0416748 159.4031958 -41.45981445 160.46288574 -41.890625 161.5546875 C-42.25188477 162.46718262 -42.61314453 163.37967773 -42.98535156 164.31982422 C-44.06978983 167.1843486 -45.03141824 170.09425471 -46 173 C-7.06 173 31.88 173 72 173 C68.04 163.76 64.08 154.52 60 145 C57.75676685 139.68479574 55.51457548 134.3696363 53.28573608 129.04846191 C47.15565573 114.41909078 40.94539638 99.82511467 34.6875 85.25 C29.72727539 73.69701058 24.77053548 62.14308232 19.875 50.5625 C19.44598389 49.54953857 19.01696777 48.53657715 18.57495117 47.49291992 C16.58047881 42.77574715 14.60591145 38.05159465 12.6640625 33.3125 C12.11322998 31.97723267 12.11322998 31.97723267 11.55126953 30.61499023 C10.87645913 28.97654556 10.20763013 27.3356173 9.54638672 25.69165039 C8.09275517 22.17000271 6.80612258 19.57015318 4 17 C4.66 17 5.32 17 6 17 C5.566875 16.10796875 5.13375 15.2159375 4.6875 14.296875 C4.130625 13.12640625 3.57375 11.9559375 3 10.75 C2.443125 9.58984375 1.88625 8.4296875 1.3125 7.234375 C0 4 0 4 0 0 Z M262 123 C263 125 263 125 263 125 Z " fill="#020202" transform="translate(327,288)"/>
<path d="M0 0 C13.86 0.33 27.72 0.66 42 1 C43.815 5.558125 45.63 10.11625 47.5 14.8125 C48.07427734 16.24698486 48.64855469 17.68146973 49.24023438 19.15942383 C49.68689453 20.28888428 50.13355469 21.41834473 50.59375 22.58203125 C51.05458984 23.73936768 51.51542969 24.8967041 51.99023438 26.08911133 C53 29 53 29 53 32 C53.66 32 54.32 32 55 32 C55.19033813 30.90969482 55.19033813 30.90969482 55.38452148 29.79736328 C55.97685423 27.10519804 56.79019962 24.78266572 57.84765625 22.2421875 C58.20537109 21.36949219 58.56308594 20.49679687 58.93164062 19.59765625 C59.68888915 17.77450523 60.44670668 15.95159045 61.20507812 14.12890625 C61.56150391 13.25878906 61.91792969 12.38867188 62.28515625 11.4921875 C62.61394775 10.70183105 62.94273926 9.91147461 63.28149414 9.09716797 C64.16205657 6.89646359 64.16205657 6.89646359 64 4 C64.66 4 65.32 4 66 4 C66 3.01 66 2.02 66 1 C71.4861446 0.04770021 76.65833031 -0.06278653 82.21484375 0.12109375 C83.07058487 0.14470474 83.92632599 0.16831573 84.80799866 0.19264221 C87.51802662 0.26868682 90.22772502 0.35296254 92.9375 0.4375 C94.78448955 0.4907801 96.63149476 0.54352 98.47851562 0.59570312 C102.98588235 0.72422091 107.49297226 0.86011688 112 1 C112 2.32 112 3.64 112 5 C111.34 5.33 110.68 5.66 110 6 C108.76422743 8.70488617 107.63304727 11.39650473 106.54296875 14.16015625 C106.20333099 15.00520218 105.86369324 15.85024811 105.51376343 16.72090149 C104.39876357 19.49897745 103.29323544 22.28072522 102.1875 25.0625 C101.42318176 26.97051028 100.65812198 28.87822367 99.89233398 30.78564453 C98.33970815 34.65460733 96.79018425 38.52478857 95.24316406 42.39599609 C92.31789545 49.71104782 89.36365529 57.0142496 86.39907837 64.31344604 C85.57625703 66.34109899 84.75608471 68.36980777 83.9362793 70.39868164 C83.44297119 71.61547607 82.94966309 72.83227051 82.44140625 74.0859375 C82.01545166 75.1382959 81.58949707 76.1906543 81.15063477 77.27490234 C80.18770284 79.55545532 79.10708263 81.78583474 78 84 C63.81 84 49.62 84 35 84 C34.67 83.01 34.34 82.02 34 81 C33.01 80.505 33.01 80.505 32 80 C31.05082555 77.88592963 30.18790309 75.73261849 29.375 73.5625 C28.70597656 71.80099609 28.70597656 71.80099609 28.0234375 70.00390625 C27 67 27 67 27 65 C26.34 64.67 25.68 64.34 25 64 C24.31323242 62.31811523 24.31323242 62.31811523 23.66796875 60.12109375 C21.92806465 54.59260048 19.64740886 49.36166317 17.3125 44.0625 C16.49278695 42.20067114 15.67621144 40.33745669 14.86328125 38.47265625 C14.50532471 37.66062744 14.14736816 36.84859863 13.77856445 36.01196289 C13 34 13 34 13 32 C12.34 31.67 11.68 31.34 11 31 C10.33721912 29.01165736 9.68245895 27.02042534 9.05859375 25.01953125 C7.43897071 20.39972088 5.4202379 15.96556998 3.42504883 11.49780273 C0 3.81949804 0 3.81949804 0 0 Z " fill="#020202" transform="translate(624,563)"/>
<path d="M0 0 C14.52 0 29.04 0 44 0 C47.63 9.24 51.26 18.48 55 28 C55.66 28 56.32 28 57 28 C57.32798584 27.18732666 57.65597168 26.37465332 57.99389648 25.53735352 C59.20882606 22.53050512 60.42602057 19.52458685 61.64477539 16.51928711 C62.17238314 15.21692306 62.69907915 13.91418927 63.22485352 12.61108398 C63.97954912 10.74106066 64.73776804 8.87246046 65.49609375 7.00390625 C65.95169678 5.87799072 66.4072998 4.7520752 66.87670898 3.59204102 C68 1 68 1 69 0 C71.95705321 -0.08868299 74.89065056 -0.11520296 77.84765625 -0.09765625 C79.17729652 -0.09553383 79.17729652 -0.09553383 80.53379822 -0.09336853 C83.37673254 -0.08775215 86.21958931 -0.07519691 89.0625 -0.0625 C90.98502491 -0.05748711 92.90755104 -0.05292384 94.83007812 -0.04882812 C99.55341549 -0.03777741 104.27669458 -0.02050183 109 0 C106.38563136 8.27484175 103.15536025 16.28380185 99.90625 24.32421875 C99.31221501 25.79907278 98.71834586 27.27399361 98.12463379 28.74897766 C96.88577163 31.82497392 95.64500181 34.90019153 94.40283203 37.97485352 C92.8156462 41.90392099 91.23314505 45.8348553 89.6520462 49.76637554 C88.42879084 52.80666044 87.20312422 55.84596871 85.97673035 58.88498878 C85.39234637 60.33388957 84.80868671 61.78308272 84.2257843 63.23258018 C83.41011801 65.25980565 82.59122037 67.28569666 81.77148438 69.3112793 C81.30754272 70.46105759 80.84360107 71.61083588 80.36560059 72.79545593 C79.02825995 75.93368467 77.55879612 78.96653958 76 82 C65.62508876 82.61807982 55.27031124 83.10212803 44.875 83.125 C43.58770996 83.13176758 43.58770996 83.13176758 42.27441406 83.13867188 C36.24800627 83.12400313 36.24800627 83.12400313 34 82 C33.66666667 80.33333333 33.33333333 78.66666667 33 77 C32.01 76.505 32.01 76.505 31 76 C30.32421875 74.28515625 30.32421875 74.28515625 29.6875 72.0625 C28.02216047 66.73341352 25.59114229 61.93062688 23 57 C22.67 56.34 22.34 55.68 22 55 C22.33 54.34 22.66 53.68 23 53 C22.34 52.67 21.68 52.34 21 52 C20.29345703 50.27416992 20.29345703 50.27416992 19.6328125 48.04296875 C18.03476581 42.97382065 16.01028491 38.17534884 13.875 33.3125 C9.08252097 22.27409339 4.53123488 11.1482763 0 0 Z " fill="#020202" transform="translate(443,564)"/>
<path d="M0 0 C15.51 0 31.02 0 47 0 C46.18545675 4.88725948 45.23104752 8.33408735 43.40234375 12.8359375 C43.13630844 13.496436 42.87027313 14.15693451 42.59617615 14.83744812 C41.71592991 17.01910643 40.82707523 19.19713059 39.9375 21.375 C38.66615225 24.50577478 37.3976752 27.63771069 36.12890625 30.76953125 C35.79697266 31.58689255 35.46503906 32.40425385 35.12304688 33.24638367 C32.57990307 39.52295254 30.10749954 45.82529499 27.65234375 52.13671875 C26.57780607 54.88246569 25.50188124 57.62766415 24.42532349 60.37261963 C23.72620072 62.1630743 23.03174365 63.95535794 22.3420105 65.74945068 C21.37336753 68.26646517 20.38783975 70.77624353 19.3984375 73.28515625 C19.11350937 74.03874924 18.82858124 74.79234222 18.53501892 75.56877136 C16.53259524 80.57935331 16.53259524 80.57935331 14.14160156 82.46777344 C11.47240295 83.13111737 9.08931915 83.24183163 6.3359375 83.23046875 C4.66398315 83.22853516 4.66398315 83.22853516 2.95825195 83.2265625 C1.18454224 83.20722656 1.18454224 83.20722656 -0.625 83.1875 C-1.82874268 83.18105469 -3.03248535 83.17460938 -4.27270508 83.16796875 C-13.87105838 83.08603549 -23.42804966 82.70069179 -33 82 C-32.48177083 80.70442708 -31.96354167 79.40885417 -31.4453125 78.11328125 C-31.08655029 77.21633545 -30.72778809 76.31938965 -30.3581543 75.39526367 C-29.5159807 73.28991305 -28.67369035 71.18460914 -27.83129883 69.0793457 C-25.114428 62.28879328 -22.39958174 55.49743825 -19.68719482 48.70509338 C-18.08939382 44.70426544 -16.49086585 40.70372813 -14.89227295 36.70321655 C-14.09496077 34.70743176 -13.29795901 32.71152293 -12.50128174 30.71548462 C-11.35975072 27.85556636 -10.21708834 24.99610231 -9.07421875 22.13671875 C-8.56986046 20.87195206 -8.56986046 20.87195206 -8.05531311 19.58163452 C-5.43307177 13.02572927 -2.71660195 6.51984469 0 0 Z " fill="#020202" transform="translate(194,564)"/>
<path d="M0 0 C-0.58503602 3.81633962 -1.73084902 6.58834477 -3.625 9.9375 C-5.30279054 13.19609896 -6 14.71140034 -6 18.4375 C-4.9831728 21.04311969 -4.02565589 22.1504881 -2 24 C-2 24.99 -2 25.98 -2 27 C1.77066466 18.04050033 5.40917575 9.03258884 9 0 C11.64 0 14.28 0 17 0 C12.5275233 13.22449972 7.38039752 26.12047127 2 39 C-0.31 39 -2.62 39 -5 39 C-7.31 34.38 -9.62 29.76 -12 25 C-14.31 29.62 -16.62 34.24 -19 39 C-21.31 39 -23.62 39 -26 39 C-26.31227539 38.22922119 -26.62455078 37.45844238 -26.94628906 36.66430664 C-28.12299079 33.76196443 -29.30104838 30.86017711 -30.47998047 27.95874023 C-31.23377073 26.102466 -31.98604278 24.2455755 -32.73828125 22.38867188 C-35.14391478 16.4708134 -37.57458558 10.57824345 -40.22949219 4.76733398 C-41 3 -41 3 -42 0 C-39.03 0 -36.06 0 -33 0 C-29.37 9.24 -25.74 18.48 -22 28 C-17.96586937 22.34521861 -17.96586937 22.34521861 -17.37109375 15.75390625 C-18.52694241 12.20251633 -20.01701981 8.96596038 -21.6875 5.625 C-23 3 -23 3 -23 0 C-20.69 0 -18.38 0 -16 0 C-15.34 1.98 -14.68 3.96 -14 6 C-11.59122743 5.88658466 -11.59122743 5.88658466 -9 5 C-7.3553326 2.53673288 -7.3553326 2.53673288 -6 0 C-3 -1 -3 -1 0 0 Z M-13 7 C-11.515 7.99 -11.515 7.99 -10 9 C-10 8.34 -10 7.68 -10 7 C-10.99 7 -11.98 7 -13 7 Z M-12 9 C-11 11 -11 11 -11 11 Z " fill="#0B0B0B" transform="translate(430,490)"/>
<path d="M0 0 C0.66 0.66 1.32 1.32 2 2 C3.446822 2.32679184 4.90839253 2.59080352 6.375 2.8125 C9.69292524 3.50595704 10.87286474 3.88875665 13.5 6.1875 C16.10993387 11.081126 16.44646194 14.48699011 14.875 19.8125 C12.7623588 23.40399004 11.7898109 23.72637502 8 25 C9.09926403 26.77388086 10.20460502 28.54399684 11.3125 30.3125 C12.23482422 31.79169922 12.23482422 31.79169922 13.17578125 33.30078125 C14.84444761 35.95399578 14.84444761 35.95399578 16.73046875 37.73046875 C18 39 18 39 18 41 C14.80921966 41.65117966 12.16715734 41.83954806 9 41 C6.06027573 38.01072982 4.06363763 34.62994431 2 31 C1.34 30.01 0.68 29.02 0 28 C-1.98 28 -3.96 28 -6 28 C-6.33 32.29 -6.66 36.58 -7 41 C-9.31 41 -11.62 41 -14 41 C-14.33 28.46 -14.66 15.92 -15 3 C-12.11584117 1.55792059 -9.58278472 1.90605113 -6.375 1.9375 C-5.18648437 1.94652344 -3.99796875 1.95554687 -2.7734375 1.96484375 C-1.85820313 1.97644531 -0.94296875 1.98804688 0 2 C0 1.34 0 0.68 0 0 Z M-7 9 C-7 12.63 -7 16.26 -7 20 C-5.06318839 20.08107583 -3.1254066 20.13922475 -1.1875 20.1875 C-0.10855469 20.22230469 0.97039063 20.25710938 2.08203125 20.29296875 C4.98142413 20.24189584 4.98142413 20.24189584 6.88671875 18.6796875 C8.28198556 16.91040295 8.28198556 16.91040295 8 13.9375 C7.29581461 10.91006484 7.29581461 10.91006484 5 9.625 C0.9189952 8.77479067 -2.83224264 8.87558933 -7 9 Z " fill="#0A0A0A" transform="translate(527,488)"/>
<path d="M0 0 C5.40953971 5.92473397 7.33648867 11.11695411 7.01171875 19.19140625 C6.22157984 24.67449142 4.1142855 28.46017878 0.125 32.25 C-4.8493404 35.48332126 -9.24877648 37.37780867 -15.39453125 36.62890625 C-20.64529344 35.49442035 -25.37097418 33.69856353 -28.59765625 29.15234375 C-32.12632706 22.79061825 -33.28964711 16.33386136 -31.4375 9.25 C-29.20287863 3.4501418 -24.96963084 -0.3817121 -19.42578125 -3.0703125 C-12.63963065 -5.2451843 -5.90606796 -3.71863538 0 0 Z M-20.375 5.875 C-23.32098839 9.12314105 -24.61112684 11.60792506 -24.75 15.9375 C-24.28026581 20.86970896 -23.61232721 23.44434041 -20.375 27.1875 C-16.04694349 29.62203179 -12.23256617 29.65796297 -7.375 28.875 C-3.95080277 27.0202265 -2.76000481 25.62750941 -1 22.1875 C-0.05966574 17.2037284 0.25456487 12.42285386 -2.57421875 8 C-4.98091738 5.37221357 -6.94343486 4.03109803 -10.3125 2.8125 C-14.38479598 2.89560808 -16.843104 3.84743008 -20.375 5.875 Z " fill="#0A0A0A" transform="translate(490.375,493.125)"/>
<path d="M0 0 C2.95923422 0.12917846 5.9136211 0.09512536 8.875 0.0625 C10.050625 0.05573242 10.050625 0.05573242 11.25 0.04882812 C13.16670014 0.03714093 15.08336048 0.01920908 17 0 C17.38133299 1.9914056 17.71325582 3.99279077 18 6 C16.41596476 7.58403524 14.7228362 7.21974935 12.52734375 7.31640625 C11.62822266 7.35830078 10.72910156 7.40019531 9.80273438 7.44335938 C8.38444336 7.50233398 8.38444336 7.50233398 6.9375 7.5625 C5.98810547 7.60568359 5.03871094 7.64886719 4.06054688 7.69335938 C1.70718647 7.79979276 -0.64628354 7.90181008 -3 8 C-3 10.64 -3 13.28 -3 16 C2.94 16 8.88 16 15 16 C15 18.31 15 20.62 15 23 C9.39 23 3.78 23 -2 23 C-2.66 25.97 -3.32 28.94 -4 32 C3.26 32 10.52 32 18 32 C18 34.31 18 36.62 18 39 C8.43 39 -1.14 39 -11 39 C-11 26.46 -11 13.92 -11 1 C-5.75993653 -1.09602539 -5.1219643 -0.99353765 0 0 Z " fill="#0E0D0D" transform="translate(798,490)"/>
<path d="M0 0 C1.796875 1.6015625 1.796875 1.6015625 2.40625 5.078125 C2.47269281 6.4601355 2.5188002 7.8432406 2.546875 9.2265625 C2.57652344 9.93296875 2.60617187 10.639375 2.63671875 11.3671875 C2.70742857 13.11136297 2.75441535 14.85647077 2.796875 16.6015625 C3.37695312 15.94929688 3.95703125 15.29703125 4.5546875 14.625 C6.17169735 12.81587017 7.79847617 11.0154368 9.43359375 9.22265625 C10.78391448 7.7250278 12.11426686 6.20736965 13.37890625 4.63671875 C16.38078255 1.09848415 18.71181036 0.19571376 23.171875 -0.2734375 C24.7125971 -0.34161104 26.25465742 -0.39234178 27.796875 -0.3984375 C26.38810359 2.9103692 24.75937055 4.71624108 21.984375 6.9765625 C18.47067944 9.93984309 15.62133204 12.98272692 12.796875 16.6015625 C14.22591235 20.83489356 16.31299347 23.74955117 19.171875 27.1640625 C20.32816406 28.55818359 20.32816406 28.55818359 21.5078125 29.98046875 C23.71880274 32.5986924 23.71880274 32.5986924 26.0859375 34.75390625 C27.796875 36.6015625 27.796875 36.6015625 27.796875 39.6015625 C22.44200014 40.83055017 22.44200014 40.83055017 18.796875 39.6015625 C14.90343315 36.06029127 11.94846707 31.56023094 9.00439453 27.22729492 C7.73299853 25.51556303 6.33705684 24.07244451 4.796875 22.6015625 C2.64628191 26.13343082 2.4171022 29.26444243 2.171875 33.3515625 C2.09710938 34.52203125 2.02234375 35.6925 1.9453125 36.8984375 C1.89632813 37.79046875 1.84734375 38.6825 1.796875 39.6015625 C-0.843125 39.6015625 -3.483125 39.6015625 -6.203125 39.6015625 C-6.203125 27.0615625 -6.203125 14.5215625 -6.203125 1.6015625 C-2.203125 -0.3984375 -2.203125 -0.3984375 0 0 Z " fill="#0E0E0E" transform="translate(329.203125,489.3984375)"/>
<path d="M0 0 C2.31 0 4.62 0 7 0 C8.15327757 4.94261817 8.53972977 9.95661339 9 15 C10.31554021 13.71142987 11.62734097 12.41904109 12.9375 11.125 C13.66839844 10.40570313 14.39929688 9.68640625 15.15234375 8.9453125 C17.05667999 7.12972808 17.05667999 7.12972808 18 5 C18.66 5 19.32 5 20 5 C20.28875 4.360625 20.5775 3.72125 20.875 3.0625 C22 1 22 1 24 0 C26.6723621 -0.13415472 29.32250488 -0.04318541 32 0 C30.0845779 4.59076711 26.67005068 7.34532607 23.09375 10.68359375 C20.81701647 13.2024426 19.55782419 14.63295311 19 18 C20.42704299 20.45205881 21.74519879 22.31192882 23.5625 24.4375 C24.00658203 24.98470703 24.45066406 25.53191406 24.90820312 26.09570312 C26.7222829 28.32051794 28.57369268 30.50938215 30.45654297 32.67626953 C34 36.79758648 34 36.79758648 34 39 C28.55877617 40.14090177 28.55877617 40.14090177 25 39 C21.99390551 35.91616169 19.59090591 32.67919897 17.1640625 29.13671875 C14.87345322 25.78622156 14.87345322 25.78622156 12 23 C11.34 23 10.68 23 10 23 C10 23.66 10 24.32 10 25 C9.34 25 8.68 25 8 25 C8 29.62 8 34.24 8 39 C5.36 39 2.72 39 0 39 C0 26.13 0 13.26 0 0 Z " fill="#0C0C0C" transform="translate(559,490)"/>
<path d="M0 0 C1.39452572 2.58359132 2.55843156 5.04507254 3.671875 7.74609375 C3.99915588 8.51301041 4.32643677 9.27992706 4.66363525 10.07008362 C5.35216703 11.69064252 6.03429432 13.31393538 6.71044922 14.93969727 C7.7470151 17.43032797 8.80330236 19.91183403 9.86328125 22.39257812 C10.52981975 23.96825393 11.19522321 25.54441046 11.859375 27.12109375 C12.33271271 28.23683022 12.33271271 28.23683022 12.81561279 29.37510681 C14.06834012 32.40032172 15 34.69218182 15 38 C12.36 38 9.72 38 7 38 C5.68 34.7 4.36 31.4 3 28 C-2.28 28.33 -7.56 28.66 -13 29 C-14.32 31.97 -15.64 34.94 -17 38 C-19.31 38 -21.62 38 -24 38 C-23.38719634 33.08468464 -21.90221678 28.77681673 -20.015625 24.23046875 C-19.71815369 23.50886063 -19.42068237 22.7872525 -19.11419678 22.04377747 C-18.48570905 20.52872223 -17.85350115 19.0152054 -17.21777344 17.50317383 C-16.24875701 15.1845258 -15.30800199 12.85559878 -14.3671875 10.52539062 C-13.75170983 9.05136823 -13.13457916 7.57803472 -12.515625 6.10546875 C-12.23833557 5.40761765 -11.96104614 4.70976654 -11.675354 3.99076843 C-10.36438363 0.95247506 -9.63606215 -0.7246623 -6.53027344 -2.0690918 C-3.51408848 -1.98673167 -2.36502413 -1.90810339 0 0 Z M-5 7 C-5.83764268 8.95649397 -6.66999059 10.91525556 -7.5 12.875 C-7.9640625 13.96554687 -8.428125 15.05609375 -8.90625 16.1796875 C-10.12052456 18.80661929 -10.12052456 18.80661929 -10 21 C-7.03 21 -4.06 21 -1 21 C0.25955231 17.22134307 -0.51912811 15.96588214 -1.9375 12.3125 C-2.31777344 11.31863281 -2.69804687 10.32476562 -3.08984375 9.30078125 C-3.39019531 8.54152344 -3.69054687 7.78226562 -4 7 C-4.33 7 -4.66 7 -5 7 Z " fill="#0C0B0B" transform="translate(294,491)"/>
<path d="M0 0 C0.61875 0.61875 1.2375 1.2375 1.875 1.875 C0.50516497 5.03615776 -0.1140638 5.8677092 -3.125 7.875 C-3.95257812 7.13830078 -3.95257812 7.13830078 -4.796875 6.38671875 C-7.58870069 4.57390576 -9.08685741 4.5577049 -12.375 4.6875 C-13.26703125 4.71457031 -14.1590625 4.74164063 -15.078125 4.76953125 C-15.75359375 4.80433594 -16.4290625 4.83914063 -17.125 4.875 C-17.455 5.865 -17.785 6.855 -18.125 7.875 C-15.51188158 11.16456397 -12.73570889 11.68879262 -8.75 12.6875 C-1.42110426 14.84449942 -1.42110426 14.84449942 1.1875 17.6875 C3.22685841 21.53962145 3.56623655 23.57397258 2.875 27.875 C1.31009249 31.67548966 -0.09700042 33.39723904 -3.83984375 35.13671875 C-6.58181919 36.14246264 -9.32276233 37.05365447 -12.125 37.875 C-12.125 37.215 -12.125 36.555 -12.125 35.875 C-13.8575 36.0296875 -13.8575 36.0296875 -15.625 36.1875 C-20.78805372 36.23359869 -24.09409183 33.87674012 -28.125 30.875 C-27.125 28.875 -26.125 26.875 -25.125 24.875 C-20.375 26.75 -20.375 26.75 -18.125 27.875 C-15.9177077 27.94592842 -13.70832548 27.95915025 -11.5 27.9375 C-9.71722656 27.92396484 -9.71722656 27.92396484 -7.8984375 27.91015625 C-6.98320313 27.89855469 -6.06796875 27.88695312 -5.125 27.875 C-5.21663703 25.4268223 -5.21663703 25.4268223 -6.125 22.875 C-8.44195991 21.5000759 -8.44195991 21.5000759 -11.3125 20.75 C-12.30636719 20.42773438 -13.30023437 20.10546875 -14.32421875 19.7734375 C-15.24847656 19.47695313 -16.17273438 19.18046875 -17.125 18.875 C-24.19329268 15.84573171 -24.19329268 15.84573171 -26.125 11.875 C-26.62162496 7.40537534 -26.72725766 5.0533302 -24.6875 1.0625 C-17.22888096 -5.30461382 -8.05799492 -5.47943655 0 0 Z " fill="#0B0B0B" transform="translate(632.125,493.125)"/>
<path d="M0 0 C1.134375 0.020625 2.26875 0.04125 3.4375 0.0625 C7.41101487 7.72485025 10.89199565 15.55107917 14.25 23.5 C14.75208984 24.66982422 15.25417969 25.83964844 15.77148438 27.04492188 C16.48208008 28.72231445 16.48208008 28.72231445 17.20703125 30.43359375 C17.85055542 31.9484436 17.85055542 31.9484436 18.50708008 33.49389648 C19.4375 36.0625 19.4375 36.0625 19.4375 39.0625 C16.7975 39.0625 14.1575 39.0625 11.4375 39.0625 C9.9525 34.1125 9.9525 34.1125 8.4375 29.0625 C0.0225 29.5575 0.0225 29.5575 -8.5625 30.0625 C-9.5525 33.0325 -10.5425 36.0025 -11.5625 39.0625 C-14.2025 39.0625 -16.8425 39.0625 -19.5625 39.0625 C-17.49623818 31.21047625 -14.49824524 23.83081898 -11.26416016 16.40014648 C-10.42639304 14.47446974 -9.59738546 12.5451908 -8.76953125 10.61523438 C-4.22260927 0.07408086 -4.22260927 0.07408086 0 0 Z M-0.5625 9.0625 C-1.42616822 10.84960586 -2.27818594 12.6423465 -3.125 14.4375 C-3.60066406 15.43523437 -4.07632813 16.43296875 -4.56640625 17.4609375 C-4.89511719 18.31945312 -5.22382812 19.17796875 -5.5625 20.0625 C-5.2325 20.7225 -4.9025 21.3825 -4.5625 22.0625 C-1.5925 22.0625 1.3775 22.0625 4.4375 22.0625 C3.84645235 17.21590923 2.45805843 13.45501833 0.4375 9.0625 C0.1075 9.0625 -0.2225 9.0625 -0.5625 9.0625 Z " fill="#0C0C0C" transform="translate(708.5625,489.9375)"/>
<path d="M0 0 C1.62158203 2.6862793 1.62158203 2.6862793 3.0078125 6.07421875 C3.25997528 6.6762764 3.51213806 7.27833405 3.77194214 7.89863586 C4.57305332 9.82182172 5.34926856 11.75395683 6.125 13.6875 C6.65331653 14.96877286 7.18324913 16.24938061 7.71484375 17.52929688 C8.69914592 19.90464224 9.67176492 22.28355846 10.63720703 24.66674805 C11.35282363 26.41707292 12.07437472 28.16567321 12.84881592 29.89077759 C15.03108031 34.75757358 15.03108031 34.75757358 14.6875 37.4375 C14.460625 37.953125 14.23375 38.46875 14 39 C11.69 38.67 9.38 38.34 7 38 C5.68 34.7 4.36 31.4 3 28 C-2.28 28.33 -7.56 28.66 -13 29 C-14.98 33.95 -14.98 33.95 -17 39 C-19.31 38.67 -21.62 38.34 -24 38 C-23.29499511 33.45479203 -21.69258001 29.35082371 -19.98046875 25.109375 C-19.68062576 24.36415588 -19.38078278 23.61893677 -19.07185364 22.85113525 C-18.43811851 21.28349144 -17.80172744 19.716919 -17.1628418 18.15136719 C-16.18734844 15.74962684 -15.23336086 13.34000609 -14.27929688 10.9296875 C-13.66016716 9.40571592 -13.03976801 7.88225932 -12.41796875 6.359375 C-12.13551804 5.63651306 -11.85306732 4.91365112 -11.5620575 4.16888428 C-9.53681541 -0.69364226 -9.53681541 -0.69364226 -7.09887695 -2.08496094 C-4.19517443 -1.96742127 -2.52120098 -1.49136133 0 0 Z M-5 7 C-5.83764268 8.95649397 -6.66999059 10.91525556 -7.5 12.875 C-7.9640625 13.96554687 -8.428125 15.05609375 -8.90625 16.1796875 C-10.12052456 18.80661929 -10.12052456 18.80661929 -10 21 C-6.7 20.67 -3.4 20.34 0 20 C-0.72008406 15.39146203 -2.31295939 11.32762591 -4 7 C-4.33 7 -4.66 7 -5 7 Z " fill="#0C0C0C" transform="translate(204,491)"/>
<path d="M0 0 C-1.24976756 3.65316671 -1.67098753 4.78065836 -5 7 C-5.82757812 6.26330078 -5.82757812 6.26330078 -6.671875 5.51171875 C-9.46370069 3.69890576 -10.96185741 3.6827049 -14.25 3.8125 C-15.14203125 3.83957031 -16.0340625 3.86664063 -16.953125 3.89453125 C-17.62859375 3.92933594 -18.3040625 3.96414063 -19 4 C-19.33 5.32 -19.66 6.64 -20 8 C-15.11817117 10.75385216 -10.44567686 11.97137215 -5 13 C-5 13.66 -5 14.32 -5 15 C-4.38125 15.2475 -3.7625 15.495 -3.125 15.75 C-0.53724008 17.27221172 0.05592658 18.16777975 1 21 C1.36258891 24.40833571 1.20191108 26.51765687 -0.125 29.6875 C-3.17247646 33.4460543 -6.60954605 34.82095083 -11.3671875 35.43359375 C-18.73870441 35.44180257 -23.74349541 35.00416294 -30 31 C-29.52066116 26.44628099 -29.52066116 26.44628099 -27.25 24.5 C-26.13625 24.2525 -26.13625 24.2525 -25 24 C-24.319375 24.45375 -23.63875 24.9075 -22.9375 25.375 C-18.46120109 27.85125046 -14.01131664 27.23696243 -9 27 C-8.67 25.35 -8.34 23.7 -8 22 C-9.06927734 21.63648438 -9.06927734 21.63648438 -10.16015625 21.265625 C-24.57493697 16.22142179 -24.57493697 16.22142179 -28.125 10.6875 C-29 7 -29 7 -28.0625 3.3125 C-25.05175708 -1.52293559 -22.1128737 -3.45221793 -16.625 -4.875 C-10.2824584 -5.09370833 -5.25758203 -3.61458765 0 0 Z " fill="#0D0D0D" transform="translate(858,494)"/>
<path d="M0 0 C3.39651939 1.21942708 5.87195371 2.70952842 8.203125 5.43359375 C10.1959479 10.77798243 10.75135059 14.39561841 8.3671875 19.671875 C6.29705718 22.80485746 3.67201358 24.31376701 0.203125 25.43359375 C-4.37067573 26.3080989 -8.33592279 26.92057782 -12.796875 25.43359375 C-12.796875 29.72359375 -12.796875 34.01359375 -12.796875 38.43359375 C-15.106875 38.43359375 -17.416875 38.43359375 -19.796875 38.43359375 C-20.51171796 29.06404499 -20.91088659 19.77481443 -20.75976562 10.37548828 C-20.71888458 6.87151145 -20.84965295 3.80294464 -21.796875 0.43359375 C-16.22630169 -2.3516929 -6.05953411 -1.22714029 0 0 Z M-12.796875 6.43359375 C-12.796875 10.39359375 -12.796875 14.35359375 -12.796875 18.43359375 C-10.87875 18.49546875 -8.960625 18.55734375 -6.984375 18.62109375 C-5.90542969 18.65589844 -4.82648437 18.69070313 -3.71484375 18.7265625 C-0.8216442 18.66800721 -0.8216442 18.66800721 1.109375 17.15234375 C2.93785866 14.27901229 1.86415002 11.61853249 1.203125 8.43359375 C-3.72424519 6.46264567 -7.57708372 6.25360095 -12.796875 6.43359375 Z " fill="#0A0A0A" transform="translate(669.796875,490.56640625)"/>
<path d="M0 0 C4 4.33333333 4 4.33333333 4 8 C0.8125 8.75 0.8125 8.75 -3 9 C-5.625 7.125 -5.625 7.125 -8 5 C-11.43497681 3.6440881 -12.99787725 3.99945101 -16.625 4.9375 C-20.48166183 7.2943489 -21.37870377 8.67647148 -22.63671875 12.875 C-23.43105609 17.52144638 -22.61878937 22.07181595 -20 26 C-16.67499687 28.21666876 -14.96276172 28.77137913 -11 29 C-7.72089789 27.81273889 -4.80015949 26.48009569 -1.8125 24.6875 C0 24 0 24 2.25 24.875 C2.8275 25.24625 3.405 25.6175 4 26 C3.76408775 29.18481531 2.77584347 30.24139934 0.5625 32.625 C-4.23488861 36.31177598 -9.70063512 37.38330857 -15.65625 36.69140625 C-21.96608645 35.16146097 -25.52263274 32.43490617 -29 27 C-31.73709206 22.39670881 -31.52952979 17.20568517 -31 12 C-29.44667291 6.1154981 -26.29915425 1.36970891 -21.0625 -1.75 C-13.70043834 -4.75492313 -6.94573807 -4.01891763 0 0 Z " fill="#0C0C0C" transform="translate(770,493)"/>
<path d="M0 0 C2.18359375 0.01953125 2.18359375 0.01953125 4.3125 0.625 C6.91587237 3.28740576 8.56491508 6.35732642 10.3125 9.625 C11.10287169 10.9799229 11.89437114 12.33418921 12.6875 13.6875 C13.22375 14.656875 13.76 15.62625 14.3125 16.625 C17.77366459 12.63134855 20.33562642 8.30470606 22.9453125 3.734375 C24.3125 1.625 24.3125 1.625 26.3125 0.625 C28.6454866 0.58477609 30.97956666 0.58179753 33.3125 0.625 C32.2116828 4.07284254 30.58038472 6.80093269 28.52734375 9.7421875 C21.54377418 19.81154502 17.34208483 27.14023556 18.3125 39.625 C16.0025 39.625 13.6925 39.625 11.3125 39.625 C11.333125 38.77679687 11.35375 37.92859375 11.375 37.0546875 C11.18908798 26.48094121 8.00110061 20.2759662 2.3125 11.625 C1.35186646 10.04306118 0.39307673 8.45999853 -0.5625 6.875 C-2.48785327 3.6880713 -2.48785327 3.6880713 -4.6875 1.625 C-3.6875 0.625 -3.6875 0.625 0 0 Z " fill="#0B0B0B" transform="translate(230.6875,489.375)"/>
<path d="M0 0 C-0.33 0.66 -0.66 1.32 -1 2 C-1.84820313 1.8659375 -2.69640625 1.731875 -3.5703125 1.59375 C-8.56486678 2.18536007 -10.57422599 4.90798122 -13.875 8.5 C-14.46796875 9.12003906 -15.0609375 9.74007813 -15.671875 10.37890625 C-17.12855211 11.90606773 -18.56620705 13.45133343 -20 15 C-20.66 14.67 -21.32 14.34 -22 14 C-21.50628906 13.51789063 -21.01257813 13.03578125 -20.50390625 12.5390625 C-19.86324219 11.90742188 -19.22257813 11.27578125 -18.5625 10.625 C-17.92441406 9.99851562 -17.28632812 9.37203125 -16.62890625 8.7265625 C-14.92117824 7.08276939 -14.92117824 7.08276939 -14 5 C-13.34 5 -12.68 5 -12 5 C-11.71125 4.360625 -11.4225 3.72125 -11.125 3.0625 C-8.74376117 -1.30310452 -4.41676314 -0.07123812 0 0 Z " fill="#201F20" transform="translate(591,490)"/>
<path d="M0 0 C4 1 4 1 4 1 Z " fill="#2D2D2C" transform="translate(390,488)"/>
<path d="M0 0 C0.33 0.99 0.66 1.98 1 3 C0.34 2.67 -0.32 2.34 -1 2 C-0.67 1.34 -0.34 0.68 0 0 Z " fill="#272727" transform="translate(369,392)"/>
<path d="M0 0 C0.66 0 1.32 0 2 0 C1.67 0.66 1.34 1.32 1 2 C0.67 1.34 0.34 0.68 0 0 Z " fill="#2F2F30" transform="translate(633,592)"/>
<path d="M0 0 C3 1 3 1 3 1 Z " fill="#3A3B3B" transform="translate(728,562)"/>
<path d="M0 0 C3 1 3 1 3 1 Z " fill="#303030" transform="translate(662,562)"/>
<path d="M0 0 C0.33 0.66 0.66 1.32 1 2 C0.34 1.67 -0.32 1.34 -1 1 C-0.67 0.67 -0.34 0.34 0 0 Z " fill="#393939" transform="translate(626,561)"/>
<path d="" fill="#2F3030" transform="translate(0,0)"/>
<path d="M0 0 C0.66 0.66 1.32 1.32 2 2 C1.34 2 0.68 2 0 2 C0 1.34 0 0.68 0 0 Z " fill="#2D2C2D" transform="translate(408,498)"/>
<path d="M0 0 C3 1 3 1 3 1 Z " fill="#2D2B2B" transform="translate(408,488)"/>
<path d="M0 0 C3 1 3 1 3 1 Z " fill="#343435" transform="translate(230,488)"/>
<path d="M0 0 C3 1 3 1 3 1 Z " fill="#272828" transform="translate(400,476)"/>
<path d="M0 0 C3 1 3 1 3 1 Z " fill="#2B2C2B" transform="translate(288,476)"/>
<path d="M0 0 C0.66 0.66 1.32 1.32 2 2 C1.34 2 0.68 2 0 2 C0 1.34 0 0.68 0 0 Z " fill="#242423" transform="translate(628,459)"/>
<path d="" fill="#272728" transform="translate(0,0)"/>
<path d="M0 0 C0.33 0.66 0.66 1.32 1 2 C0.34 1.67 -0.32 1.34 -1 1 C-0.67 0.67 -0.34 0.34 0 0 Z " fill="#2A2A2A" transform="translate(660,349)"/>
<path d="" fill="#3C3C3C" transform="translate(0,0)"/>
<path d="" fill="#444446" transform="translate(0,0)"/>
<path d="" fill="#2F3030" transform="translate(0,0)"/>
<path d="" fill="#313132" transform="translate(0,0)"/>
<path d="" fill="#343435" transform="translate(0,0)"/>
<path d="M0 0 C2 1 2 1 2 1 Z " fill="#363436" transform="translate(711,562)"/>
<path d="M0 0 C2 1 2 1 2 1 Z " fill="#353334" transform="translate(639,562)"/>
<path d="" fill="#3A3A3A" transform="translate(0,0)"/>
<path d="" fill="#303032" transform="translate(0,0)"/>
<path d="" fill="#3B3B39" transform="translate(0,0)"/>
<path d="" fill="#363635" transform="translate(0,0)"/>
<path d="" fill="#313332" transform="translate(0,0)"/>
<path d="" fill="#3B3A39" transform="translate(0,0)"/>
<path d="" fill="#363837" transform="translate(0,0)"/>
<path d="" fill="#383737" transform="translate(0,0)"/>
<path d="M0 0 C2 1 2 1 2 1 Z " fill="#353334" transform="translate(762,499)"/>
<path d="M0 0 C2 1 2 1 2 1 Z " fill="#333232" transform="translate(625,499)"/>
<path d="M0 0 C2 1 2 1 2 1 Z " fill="#333333" transform="translate(482,499)"/>
<path d="" fill="#2C2D2C" transform="translate(0,0)"/>
<path d="M0 0 C2 1 2 1 2 1 Z " fill="#333132" transform="translate(752,488)"/>
<path d="M0 0 C2 1 2 1 2 1 Z " fill="#323332" transform="translate(472,488)"/>
<path d="M0 0 C2 1 2 1 2 1 Z " fill="#2D2B2B" transform="translate(424,488)"/>
<path d="M0 0 C2 1 2 1 2 1 Z " fill="#302D2C" transform="translate(287,488)"/>
<path d="M0 0 C2 1 2 1 2 1 Z " fill="#2B2A2B" transform="translate(261,488)"/>
<path d="M0 0 C2 1 2 1 2 1 Z " fill="#2D2B2D" transform="translate(256,488)"/>
<path d="M0 0 C2 1 2 1 2 1 Z " fill="#3B3B3C" transform="translate(200,488)"/>
<path d="M0 0 C2 1 2 1 2 1 Z " fill="#2A2B2C" transform="translate(582,484)"/>
<path d="M0 0 C2 1 2 1 2 1 Z " fill="#2C2C2C" transform="translate(566,484)"/>
<path d="M0 0 C2 1 2 1 2 1 Z " fill="#2A2A2B" transform="translate(550,484)"/>
<path d="M0 0 C2 1 2 1 2 1 Z " fill="#2B2B2B" transform="translate(265,484)"/>
<path d="" fill="#323232" transform="translate(0,0)"/>
<path d="M0 0 C2 1 2 1 2 1 Z " fill="#2D2F2D" transform="translate(689,476)"/>
<path d="M0 0 C2 1 2 1 2 1 Z " fill="#2F3031" transform="translate(681,476)"/>
<path d="M0 0 C2 1 2 1 2 1 Z " fill="#2B2C2D" transform="translate(641,476)"/>
<path d="M0 0 C2 1 2 1 2 1 Z " fill="#2A2A29" transform="translate(545,476)"/>
<path d="M0 0 C2 1 2 1 2 1 Z " fill="#2A2B2A" transform="translate(534,476)"/>
<path d="M0 0 C2 1 2 1 2 1 Z " fill="#2A2B2A" transform="translate(525,476)"/>
<path d="M0 0 C2 1 2 1 2 1 Z " fill="#2A2A2C" transform="translate(521,476)"/>
<path d="M0 0 C2 1 2 1 2 1 Z " fill="#2C2D2D" transform="translate(510,476)"/>
<path d="M0 0 C2 1 2 1 2 1 Z " fill="#2A292A" transform="translate(470,476)"/>
<path d="M0 0 C2 1 2 1 2 1 Z " fill="#292929" transform="translate(465,476)"/>
<path d="M0 0 C2 1 2 1 2 1 Z " fill="#282728" transform="translate(393,476)"/>
<path d="M0 0 C2 1 2 1 2 1 Z " fill="#2E2E2E" transform="translate(369,476)"/>
<path d="M0 0 C2 1 2 1 2 1 Z " fill="#2C2F2E" transform="translate(345,476)"/>
<path d="M0 0 C2 1 2 1 2 1 Z " fill="#302F31" transform="translate(342,476)"/>
<path d="M0 0 C2 1 2 1 2 1 Z " fill="#2F2F30" transform="translate(337,476)"/>
<path d="M0 0 C2 1 2 1 2 1 Z " fill="#2C2D2E" transform="translate(305,476)"/>
<path d="" fill="#282829" transform="translate(0,0)"/>
<path d="" fill="#272727" transform="translate(0,0)"/>
<path d="" fill="#222120" transform="translate(0,0)"/>
<path d="" fill="#2B2B2A" transform="translate(0,0)"/>
<path d="" fill="#272626" transform="translate(0,0)"/>
<path d="M0 0 C2 1 2 1 2 1 Z " fill="#252425" transform="translate(547,422)"/>
<path d="" fill="#272725" transform="translate(0,0)"/>
<path d="" fill="#282626" transform="translate(0,0)"/>
<path d="" fill="#272827" transform="translate(0,0)"/>
<path d="" fill="#272829" transform="translate(0,0)"/>
<path d="M0 0 C2 1 2 1 2 1 Z " fill="#262627" transform="translate(529,376)"/>
<path d="" fill="#292829" transform="translate(0,0)"/>
<path d="" fill="#2B2928" transform="translate(0,0)"/>
<path d="" fill="#302F32" transform="translate(0,0)"/>
<path d="" fill="#2A2A28" transform="translate(0,0)"/>
<path d="" fill="#2C2C2D" transform="translate(0,0)"/>
<path d="" fill="#2D2D2E" transform="translate(0,0)"/>
<path d="" fill="#2D2C2B" transform="translate(0,0)"/>
<path d="" fill="#292C2E" transform="translate(0,0)"/>
<path d="" fill="#353636" transform="translate(0,0)"/>
<path d="M0 0 C2 1 2 1 2 1 Z " fill="#3F3F3F" transform="translate(500,288)"/>
<path d="" fill="#5D5E5D" transform="translate(0,0)"/>
<path d="" fill="#383A3B" transform="translate(0,0)"/>
<path d="" fill="#363938" transform="translate(0,0)"/>
<path d="" fill="#393C3B" transform="translate(0,0)"/>
<path d="" fill="#454647" transform="translate(0,0)"/>
<path d="" fill="#3D3D3D" transform="translate(0,0)"/>
<path d="" fill="#3B3C3B" transform="translate(0,0)"/>
<path d="" fill="#39393A" transform="translate(0,0)"/>
<path d="" fill="#434243" transform="translate(0,0)"/>
<path d="" fill="#323032" transform="translate(0,0)"/>
<path d="" fill="#333636" transform="translate(0,0)"/>
<path d="" fill="#322F31" transform="translate(0,0)"/>
<path d="" fill="#353333" transform="translate(0,0)"/>
<path d="" fill="#2F2F2D" transform="translate(0,0)"/>
<path d="" fill="#2F3130" transform="translate(0,0)"/>
<path d="" fill="#343535" transform="translate(0,0)"/>
<path d="" fill="#2F3030" transform="translate(0,0)"/>
<path d="" fill="#323131" transform="translate(0,0)"/>
<path d="" fill="#323031" transform="translate(0,0)"/>
<path d="" fill="#363839" transform="translate(0,0)"/>
<path d="" fill="#312E30" transform="translate(0,0)"/>
<path d="" fill="#303130" transform="translate(0,0)"/>
<path d="" fill="#282727" transform="translate(0,0)"/>
<path d="" fill="#242525" transform="translate(0,0)"/>
<path d="" fill="#242325" transform="translate(0,0)"/>
<path d="" fill="#343031" transform="translate(0,0)"/>
<path d="" fill="#232322" transform="translate(0,0)"/>
<path d="" fill="#252524" transform="translate(0,0)"/>
<path d="" fill="#323532" transform="translate(0,0)"/>
<path d="" fill="#231F22" transform="translate(0,0)"/>
<path d="" fill="#353534" transform="translate(0,0)"/>
<path d="" fill="#343435" transform="translate(0,0)"/>
<path d="" fill="#323434" transform="translate(0,0)"/>
<path d="" fill="#393939" transform="translate(0,0)"/>
<path d="" fill="#383636" transform="translate(0,0)"/>
<path d="" fill="#3A3939" transform="translate(0,0)"/>
<path d="" fill="#3F3E40" transform="translate(0,0)"/>
<path d="" fill="#393636" transform="translate(0,0)"/>
<path d="" fill="#353335" transform="translate(0,0)"/>
<path d="" fill="#333432" transform="translate(0,0)"/>
<path d="" fill="#333033" transform="translate(0,0)"/>
<path d="" fill="#3A3A3A" transform="translate(0,0)"/>
<path d="" fill="#363638" transform="translate(0,0)"/>
<path d="" fill="#333434" transform="translate(0,0)"/>
<path d="" fill="#312F32" transform="translate(0,0)"/>
<path d="" fill="#323232" transform="translate(0,0)"/>
<path d="" fill="#303130" transform="translate(0,0)"/>
<path d="" fill="#333233" transform="translate(0,0)"/>
<path d="" fill="#3A3B3E" transform="translate(0,0)"/>
<path d="" fill="#393738" transform="translate(0,0)"/>
<path d="" fill="#353736" transform="translate(0,0)"/>
<path d="" fill="#464646" transform="translate(0,0)"/>
<path d="" fill="#383637" transform="translate(0,0)"/>
<path d="" fill="#393636" transform="translate(0,0)"/>
<path d="" fill="#3C3A3A" transform="translate(0,0)"/>
<path d="" fill="#353639" transform="translate(0,0)"/>
<path d="" fill="#353434" transform="translate(0,0)"/>
<path d="" fill="#373737" transform="translate(0,0)"/>
<path d="" fill="#353535" transform="translate(0,0)"/>
<path d="" fill="#393A37" transform="translate(0,0)"/>
<path d="" fill="#383939" transform="translate(0,0)"/>
<path d="" fill="#333232" transform="translate(0,0)"/>
<path d="" fill="#373837" transform="translate(0,0)"/>
<path d="" fill="#393A38" transform="translate(0,0)"/>
<path d="" fill="#393939" transform="translate(0,0)"/>
<path d="" fill="#393637" transform="translate(0,0)"/>
<path d="" fill="#333132" transform="translate(0,0)"/>
<path d="" fill="#393939" transform="translate(0,0)"/>
<path d="" fill="#333435" transform="translate(0,0)"/>
<path d="" fill="#383937" transform="translate(0,0)"/>
<path d="" fill="#353433" transform="translate(0,0)"/>
<path d="" fill="#303333" transform="translate(0,0)"/>
<path d="" fill="#3E3E3C" transform="translate(0,0)"/>
<path d="" fill="#343735" transform="translate(0,0)"/>
<path d="" fill="#343535" transform="translate(0,0)"/>
<path d="" fill="#323331" transform="translate(0,0)"/>
<path d="" fill="#363838" transform="translate(0,0)"/>
<path d="" fill="#494A49" transform="translate(0,0)"/>
<path d="" fill="#393739" transform="translate(0,0)"/>
<path d="" fill="#363536" transform="translate(0,0)"/>
<path d="" fill="#363533" transform="translate(0,0)"/>
<path d="" fill="#373736" transform="translate(0,0)"/>
<path d="" fill="#363333" transform="translate(0,0)"/>
<path d="" fill="#373835" transform="translate(0,0)"/>
<path d="" fill="#363334" transform="translate(0,0)"/>
<path d="" fill="#353533" transform="translate(0,0)"/>
<path d="" fill="#303332" transform="translate(0,0)"/>
<path d="" fill="#323435" transform="translate(0,0)"/>
<path d="" fill="#313132" transform="translate(0,0)"/>
<path d="" fill="#353835" transform="translate(0,0)"/>
<path d="" fill="#393839" transform="translate(0,0)"/>
<path d="" fill="#343332" transform="translate(0,0)"/>
<path d="" fill="#363435" transform="translate(0,0)"/>
<path d="" fill="#323131" transform="translate(0,0)"/>
<path d="" fill="#322F31" transform="translate(0,0)"/>
<path d="" fill="#333435" transform="translate(0,0)"/>
<path d="" fill="#353635" transform="translate(0,0)"/>
<path d="" fill="#383739" transform="translate(0,0)"/>
<path d="" fill="#303131" transform="translate(0,0)"/>
<path d="" fill="#313030" transform="translate(0,0)"/>
<path d="" fill="#33302F" transform="translate(0,0)"/>
<path d="" fill="#38393B" transform="translate(0,0)"/>
<path d="" fill="#2F3130" transform="translate(0,0)"/>
<path d="" fill="#373637" transform="translate(0,0)"/>
<path d="" fill="#373836" transform="translate(0,0)"/>
<path d="" fill="#333435" transform="translate(0,0)"/>
<path d="" fill="#363737" transform="translate(0,0)"/>
<path d="" fill="#2F3032" transform="translate(0,0)"/>
<path d="" fill="#31312F" transform="translate(0,0)"/>
<path d="" fill="#363533" transform="translate(0,0)"/>
<path d="" fill="#343334" transform="translate(0,0)"/>
<path d="" fill="#333233" transform="translate(0,0)"/>
<path d="" fill="#2E3131" transform="translate(0,0)"/>
<path d="" fill="#313031" transform="translate(0,0)"/>
<path d="" fill="#333433" transform="translate(0,0)"/>
<path d="" fill="#3F403D" transform="translate(0,0)"/>
<path d="" fill="#363633" transform="translate(0,0)"/>
<path d="" fill="#333132" transform="translate(0,0)"/>
<path d="" fill="#3D3F3E" transform="translate(0,0)"/>
<path d="" fill="#323232" transform="translate(0,0)"/>
<path d="" fill="#2E2D31" transform="translate(0,0)"/>
<path d="" fill="#383734" transform="translate(0,0)"/>
<path d="" fill="#353333" transform="translate(0,0)"/>
<path d="" fill="#312E30" transform="translate(0,0)"/>
<path d="" fill="#313031" transform="translate(0,0)"/>
<path d="" fill="#2F2F30" transform="translate(0,0)"/>
<path d="" fill="#30312E" transform="translate(0,0)"/>
<path d="" fill="#332F30" transform="translate(0,0)"/>
<path d="" fill="#2E2E2E" transform="translate(0,0)"/>
<path d="" fill="#313333" transform="translate(0,0)"/>
<path d="" fill="#312E2F" transform="translate(0,0)"/>
<path d="" fill="#302D2F" transform="translate(0,0)"/>
<path d="" fill="#313131" transform="translate(0,0)"/>
<path d="" fill="#2F3030" transform="translate(0,0)"/>
<path d="" fill="#312F2E" transform="translate(0,0)"/>
<path d="" fill="#2E2E2C" transform="translate(0,0)"/>
<path d="" fill="#2F2E2D" transform="translate(0,0)"/>
<path d="" fill="#343331" transform="translate(0,0)"/>
<path d="" fill="#2F2F2D" transform="translate(0,0)"/>
<path d="" fill="#2E2C2B" transform="translate(0,0)"/>
<path d="" fill="#313030" transform="translate(0,0)"/>
<path d="" fill="#2E2F30" transform="translate(0,0)"/>
<path d="" fill="#393938" transform="translate(0,0)"/>
<path d="" fill="#383633" transform="translate(0,0)"/>
<path d="" fill="#343131" transform="translate(0,0)"/>
<path d="" fill="#333430" transform="translate(0,0)"/>
<path d="" fill="#2E2C2C" transform="translate(0,0)"/>
<path d="" fill="#2B2A29" transform="translate(0,0)"/>
<path d="" fill="#2F302E" transform="translate(0,0)"/>
<path d="" fill="#2C2B2D" transform="translate(0,0)"/>
<path d="" fill="#32312E" transform="translate(0,0)"/>
<path d="" fill="#2D2E2A" transform="translate(0,0)"/>
<path d="" fill="#2C2A2B" transform="translate(0,0)"/>
<path d="" fill="#2A2A29" transform="translate(0,0)"/>
<path d="" fill="#2D2B2C" transform="translate(0,0)"/>
<path d="" fill="#2E302F" transform="translate(0,0)"/>
<path d="" fill="#30312E" transform="translate(0,0)"/>
<path d="" fill="#30302E" transform="translate(0,0)"/>
<path d="" fill="#373539" transform="translate(0,0)"/>
<path d="" fill="#3B393B" transform="translate(0,0)"/>
<path d="" fill="#2E2D2E" transform="translate(0,0)"/>
<path d="" fill="#2B2B2D" transform="translate(0,0)"/>
<path d="" fill="#303131" transform="translate(0,0)"/>
<path d="" fill="#282728" transform="translate(0,0)"/>
<path d="" fill="#2D2C2B" transform="translate(0,0)"/>
<path d="" fill="#2E3030" transform="translate(0,0)"/>
<path d="" fill="#2C2D2C" transform="translate(0,0)"/>
<path d="" fill="#2D2B2D" transform="translate(0,0)"/>
<path d="" fill="#2D2C2F" transform="translate(0,0)"/>
<path d="" fill="#2C2B2D" transform="translate(0,0)"/>
<path d="" fill="#2F302F" transform="translate(0,0)"/>
<path d="" fill="#2A2B2C" transform="translate(0,0)"/>
<path d="" fill="#2F2E2F" transform="translate(0,0)"/>
<path d="" fill="#333233" transform="translate(0,0)"/>
<path d="" fill="#383637" transform="translate(0,0)"/>
<path d="" fill="#2B2B2B" transform="translate(0,0)"/>
<path d="" fill="#343433" transform="translate(0,0)"/>
<path d="" fill="#282929" transform="translate(0,0)"/>
<path d="" fill="#2A2B2A" transform="translate(0,0)"/>
<path d="" fill="#2B2B2A" transform="translate(0,0)"/>
<path d="" fill="#2F3030" transform="translate(0,0)"/>
<path d="" fill="#2E2E2F" transform="translate(0,0)"/>
<path d="" fill="#2F2F30" transform="translate(0,0)"/>
<path d="" fill="#303031" transform="translate(0,0)"/>
<path d="" fill="#2F2F2F" transform="translate(0,0)"/>
<path d="" fill="#2F2E30" transform="translate(0,0)"/>
<path d="" fill="#2F302E" transform="translate(0,0)"/>
<path d="" fill="#2E302E" transform="translate(0,0)"/>
<path d="" fill="#2E302D" transform="translate(0,0)"/>
<path d="" fill="#2E2D2F" transform="translate(0,0)"/>
<path d="" fill="#2E2D2D" transform="translate(0,0)"/>
<path d="" fill="#292B29" transform="translate(0,0)"/>
<path d="" fill="#2C2B2A" transform="translate(0,0)"/>
<path d="" fill="#2D2C2A" transform="translate(0,0)"/>
<path d="" fill="#2D2C2C" transform="translate(0,0)"/>
<path d="" fill="#2D2E2E" transform="translate(0,0)"/>
<path d="" fill="#2C2E2E" transform="translate(0,0)"/>
<path d="" fill="#2C2B2D" transform="translate(0,0)"/>
<path d="" fill="#282B28" transform="translate(0,0)"/>
<path d="" fill="#292828" transform="translate(0,0)"/>
<path d="" fill="#2C2B2B" transform="translate(0,0)"/>
<path d="" fill="#2E2D2D" transform="translate(0,0)"/>
<path d="" fill="#2E2E2E" transform="translate(0,0)"/>
<path d="" fill="#2C2F2F" transform="translate(0,0)"/>
<path d="" fill="#303031" transform="translate(0,0)"/>
<path d="" fill="#2D2F2E" transform="translate(0,0)"/>
<path d="" fill="#2F2F31" transform="translate(0,0)"/>
<path d="" fill="#30302F" transform="translate(0,0)"/>
<path d="" fill="#2D2D2F" transform="translate(0,0)"/>
<path d="" fill="#2D2A2C" transform="translate(0,0)"/>
<path d="" fill="#2B2B2B" transform="translate(0,0)"/>
<path d="" fill="#2A2C2A" transform="translate(0,0)"/>
<path d="" fill="#292A28" transform="translate(0,0)"/>
<path d="" fill="#282828" transform="translate(0,0)"/>
<path d="" fill="#302F32" transform="translate(0,0)"/>
<path d="" fill="#333431" transform="translate(0,0)"/>
<path d="" fill="#302F2F" transform="translate(0,0)"/>
<path d="" fill="#323232" transform="translate(0,0)"/>
<path d="" fill="#242425" transform="translate(0,0)"/>
<path d="" fill="#282A29" transform="translate(0,0)"/>
<path d="" fill="#272725" transform="translate(0,0)"/>
<path d="" fill="#252628" transform="translate(0,0)"/>
<path d="" fill="#262727" transform="translate(0,0)"/>
<path d="" fill="#2B2B2C" transform="translate(0,0)"/>
<path d="" fill="#333634" transform="translate(0,0)"/>
<path d="" fill="#292627" transform="translate(0,0)"/>
<path d="" fill="#282727" transform="translate(0,0)"/>
<path d="" fill="#252625" transform="translate(0,0)"/>
<path d="" fill="#343334" transform="translate(0,0)"/>
<path d="" fill="#242425" transform="translate(0,0)"/>
<path d="" fill="#302F30" transform="translate(0,0)"/>
<path d="" fill="#242626" transform="translate(0,0)"/>
<path d="" fill="#2C2B2D" transform="translate(0,0)"/>
<path d="" fill="#292828" transform="translate(0,0)"/>
<path d="" fill="#272727" transform="translate(0,0)"/>
<path d="" fill="#28282A" transform="translate(0,0)"/>
<path d="" fill="#1E1D1F" transform="translate(0,0)"/>
<path d="" fill="#2F2D2F" transform="translate(0,0)"/>
<path d="" fill="#242423" transform="translate(0,0)"/>
<path d="" fill="#282A29" transform="translate(0,0)"/>
<path d="" fill="#2B2B2B" transform="translate(0,0)"/>
<path d="" fill="#21221F" transform="translate(0,0)"/>
<path d="" fill="#252827" transform="translate(0,0)"/>
<path d="" fill="#333634" transform="translate(0,0)"/>
<path d="" fill="#272527" transform="translate(0,0)"/>
<path d="" fill="#2A2B2C" transform="translate(0,0)"/>
<path d="" fill="#312F30" transform="translate(0,0)"/>
<path d="" fill="#262929" transform="translate(0,0)"/>
<path d="" fill="#2D2E2F" transform="translate(0,0)"/>
<path d="" fill="#262525" transform="translate(0,0)"/>
<path d="" fill="#333434" transform="translate(0,0)"/>
<path d="" fill="#282725" transform="translate(0,0)"/>
<path d="" fill="#272728" transform="translate(0,0)"/>
<path d="" fill="#303233" transform="translate(0,0)"/>
<path d="" fill="#2E2C30" transform="translate(0,0)"/>
<path d="" fill="#202326" transform="translate(0,0)"/>
<path d="" fill="#272626" transform="translate(0,0)"/>
<path d="" fill="#2F302F" transform="translate(0,0)"/>
<path d="" fill="#232422" transform="translate(0,0)"/>
<path d="" fill="#2B2C2B" transform="translate(0,0)"/>
<path d="" fill="#2A2A2A" transform="translate(0,0)"/>
<path d="" fill="#2A2B2C" transform="translate(0,0)"/>
<path d="" fill="#333234" transform="translate(0,0)"/>
<path d="" fill="#292A29" transform="translate(0,0)"/>
<path d="" fill="#292829" transform="translate(0,0)"/>
<path d="" fill="#282828" transform="translate(0,0)"/>
<path d="" fill="#2A282A" transform="translate(0,0)"/>
<path d="" fill="#2A2A29" transform="translate(0,0)"/>
<path d="" fill="#333334" transform="translate(0,0)"/>
<path d="" fill="#313335" transform="translate(0,0)"/>
<path d="" fill="#272624" transform="translate(0,0)"/>
<path d="" fill="#312F31" transform="translate(0,0)"/>
<path d="" fill="#2A292A" transform="translate(0,0)"/>
<path d="" fill="#303133" transform="translate(0,0)"/>
<path d="" fill="#292A2A" transform="translate(0,0)"/>
<path d="" fill="#282929" transform="translate(0,0)"/>
<path d="" fill="#2A292A" transform="translate(0,0)"/>
<path d="" fill="#292828" transform="translate(0,0)"/>
<path d="" fill="#312E31" transform="translate(0,0)"/>
<path d="" fill="#272727" transform="translate(0,0)"/>
<path d="" fill="#363635" transform="translate(0,0)"/>
<path d="" fill="#2A2C2B" transform="translate(0,0)"/>
<path d="" fill="#28292A" transform="translate(0,0)"/>
<path d="" fill="#303232" transform="translate(0,0)"/>
<path d="" fill="#292B29" transform="translate(0,0)"/>
<path d="" fill="#272827" transform="translate(0,0)"/>
<path d="" fill="#313130" transform="translate(0,0)"/>
<path d="" fill="#363838" transform="translate(0,0)"/>
<path d="" fill="#3D3D3E" transform="translate(0,0)"/>
<path d="" fill="#343335" transform="translate(0,0)"/>
<path d="" fill="#2B2D2D" transform="translate(0,0)"/>
<path d="" fill="#2C2B2A" transform="translate(0,0)"/>
<path d="" fill="#3E3C3E" transform="translate(0,0)"/>
<path d="" fill="#2C2C2D" transform="translate(0,0)"/>
<path d="" fill="#2B2D2D" transform="translate(0,0)"/>
<path d="" fill="#2D2C2E" transform="translate(0,0)"/>
<path d="" fill="#2B2D2B" transform="translate(0,0)"/>
<path d="" fill="#40413F" transform="translate(0,0)"/>
<path d="" fill="#2C2C2A" transform="translate(0,0)"/>
<path d="" fill="#323030" transform="translate(0,0)"/>
<path d="" fill="#313131" transform="translate(0,0)"/>
<path d="" fill="#2A2A2D" transform="translate(0,0)"/>
<path d="" fill="#333234" transform="translate(0,0)"/>
<path d="" fill="#313233" transform="translate(0,0)"/>
<path d="" fill="#2E2E2E" transform="translate(0,0)"/>
<path d="" fill="#393938" transform="translate(0,0)"/>
<path d="" fill="#2F2F2E" transform="translate(0,0)"/>
<path d="" fill="#2D302D" transform="translate(0,0)"/>
<path d="" fill="#393A39" transform="translate(0,0)"/>
<path d="" fill="#302F2F" transform="translate(0,0)"/>
<path d="" fill="#333234" transform="translate(0,0)"/>
<path d="" fill="#343434" transform="translate(0,0)"/>
<path d="" fill="#333336" transform="translate(0,0)"/>
<path d="" fill="#343536" transform="translate(0,0)"/>
<path d="" fill="#353637" transform="translate(0,0)"/>
<path d="" fill="#3C3B3C" transform="translate(0,0)"/>
<path d="" fill="#3F4040" transform="translate(0,0)"/>
<path d="" fill="#444443" transform="translate(0,0)"/>
<path d="" fill="#484848" transform="translate(0,0)"/>
</svg>
